<svg width="370" height="326" viewBox="0 0 370 326" fill="none" xmlns="http://www.w3.org/2000/svg">
<g clip-path="url(#clip0_62_2)">
<g filter="url(#filter0_d_62_2)">
<rect x="68" y="84.5" width="231" height="179" rx="89.5" fill="#FF4FD8" fill-opacity="0.63" shape-rendering="crispEdges"/>
</g>
<path d="M2 92.2103C2 89.581 4.49339 87.6668 7.03345 88.3462L171.033 132.207C172.783 132.675 174 134.26 174 136.071V320.506C174 323.22 171.355 325.146 168.772 324.313L4.77167 271.394C3.11964 270.861 2 269.324 2 267.588V92.2103Z" fill="white"/>
<path d="M194 320.516C194 323.227 196.64 325.153 199.222 324.325L364.222 271.391C365.877 270.86 367 269.321 367 267.582V91.7171C367 89.0857 364.503 87.1712 361.962 87.8542L196.962 132.204C195.214 132.674 194 134.258 194 136.067L194 320.516Z" fill="white"/>
<path d="M183.17 0.472002C184.031 0.166556 184.97 0.16463 185.831 0.466548L357.803 60.7263C361.514 62.0266 361.318 67.34 357.522 68.3634L185.539 114.72C184.858 114.903 184.142 114.904 183.461 114.721L12.4176 68.8316C8.62554 67.8142 8.41598 62.5122 12.1159 61.1987L183.17 0.472002Z" fill="white"/>
</g>
<defs>
<filter id="filter0_d_62_2" x="-12" y="4.5" width="391" height="339" filterUnits="userSpaceOnUse" color-interpolation-filters="sRGB">
<feFlood flood-opacity="0" result="BackgroundImageFix"/>
<feColorMatrix in="SourceAlpha" type="matrix" values="0 0 0 0 0 0 0 0 0 0 0 0 0 0 0 0 0 0 127 0" result="hardAlpha"/>
<feMorphology radius="30" operator="dilate" in="SourceAlpha" result="effect1_dropShadow_62_2"/>
<feOffset/>
<feGaussianBlur stdDeviation="25"/>
<feComposite in2="hardAlpha" operator="out"/>
<feColorMatrix type="matrix" values="0 0 0 0 1 0 0 0 0 0.308333 0 0 0 0 0.847833 0 0 0 0.71 0"/>
<feBlend mode="normal" in2="BackgroundImageFix" result="effect1_dropShadow_62_2"/>
<feBlend mode="normal" in="SourceGraphic" in2="effect1_dropShadow_62_2" result="shape"/>
</filter>
<clipPath id="clip0_62_2">
<rect width="370" height="326" fill="white"/>
</clipPath>
</defs>
</svg>
